<?xml version="1.0" ?>
<svg height="224" version="1.1" width="224" xmlns="http://www.w3.org/2000/svg">
  <defs/>
  <g>
    <path d="M 200.6338348388672 41.33741760253906 C 170.36563110351562 73.87351989746094 203.59461975097656 95.59893035888672 128.5409393310547 107.24400329589844" fill="none" stroke="rgb(0, 0, 0)" stroke-linecap="round" stroke-linejoin="round" stroke-opacity="1.0" stroke-width="3.0"/>
    <path d="M 125.28699493408203 59.99845886230469 C 192.40036010742188 118.8542251586914 162.51588439941406 -2.9868853092193604 187.1286163330078 39.617469787597656" fill="none" stroke="rgb(0, 0, 0)" stroke-linecap="round" stroke-linejoin="round" stroke-opacity="1.0" stroke-width="3.0"/>
    <path d="M 39.73954772949219 58.710628509521484 C 31.78596305847168 76.2918472290039 57.24024200439453 90.79571533203125 39.97568893432617 126.6612548828125" fill="none" stroke="rgb(0, 0, 0)" stroke-linecap="round" stroke-linejoin="round" stroke-opacity="1.0" stroke-width="3.0"/>
    <path d="M 35.69615173339844 123.45850372314453 C 55.99518585205078 290.2246398925781 20.657163619995117 182.4904022216797 43.08176803588867 219.00479125976562" fill="none" stroke="rgb(0, 0, 0)" stroke-linecap="round" stroke-linejoin="round" stroke-opacity="1.0" stroke-width="3.0"/>
    <path d="M 179.19960021972656 28.18931007385254 C 254.25387573242188 40.333824157714844 181.8233184814453 16.241010665893555 206.32498168945312 41.364990234375" fill="none" stroke="rgb(0, 0, 0)" stroke-linecap="round" stroke-linejoin="round" stroke-opacity="1.0" stroke-width="3.0"/>
    <path d="M 107.99781036376953 86.91983032226562 C 110.0559310913086 103.90071105957031 87.32875061035156 108.10548400878906 105.03089904785156 120.5217514038086" fill="none" stroke="rgb(0, 0, 0)" stroke-linecap="round" stroke-linejoin="round" stroke-opacity="1.0" stroke-width="3.0"/>
    <path d="M 105.42631530761719 212.13003540039062 C 115.1618423461914 74.87689208984375 138.09097290039062 112.29771423339844 128.4833221435547 86.8924331665039" fill="none" stroke="rgb(0, 0, 0)" stroke-linecap="round" stroke-linejoin="round" stroke-opacity="1.0" stroke-width="3.0"/>
    <path d="M 216.881103515625 34.4793586730957 C 118.79254913330078 85.37318420410156 210.9805145263672 10.186423301696777 181.4867706298828 30.048044204711914" fill="none" stroke="rgb(0, 0, 0)" stroke-linecap="round" stroke-linejoin="round" stroke-opacity="1.0" stroke-width="3.0"/>
    <path d="M 148.91827392578125 77.2434310913086 C 93.46098327636719 36.572044372558594 79.31279754638672 -5.273705959320068 55.407962799072266 41.009796142578125" fill="none" stroke="rgb(0, 0, 0)" stroke-linecap="round" stroke-linejoin="round" stroke-opacity="1.0" stroke-width="3.0"/>
    <path d="M 48.23585510253906 210.08953857421875 C 20.92747688293457 150.22723388671875 53.18541717529297 128.98509216308594 38.92612075805664 113.86591339111328" fill="none" stroke="rgb(0, 0, 0)" stroke-linecap="round" stroke-linejoin="round" stroke-opacity="1.0" stroke-width="3.0"/>
    <path d="M 72.99490356445312 114.7187271118164 C 119.43864440917969 119.04195404052734 91.81813049316406 117.35865020751953 75.42373657226562 116.150146484375" fill="none" stroke="rgb(0, 0, 0)" stroke-linecap="round" stroke-linejoin="round" stroke-opacity="1.0" stroke-width="3.0"/>
    <path d="M 34.58090591430664 216.3251495361328 C 20.01719856262207 98.42635345458984 4.444897651672363 153.7435302734375 15.295076370239258 106.39404296875" fill="none" stroke="rgb(0, 0, 0)" stroke-linecap="round" stroke-linejoin="round" stroke-opacity="1.0" stroke-width="3.0"/>
    <path d="M 25.96639060974121 165.2260284423828 C 21.44784927368164 93.41654205322266 -9.41869068145752 80.49726104736328 61.31195068359375 37.05965805053711" fill="none" stroke="rgb(0, 0, 0)" stroke-linecap="round" stroke-linejoin="round" stroke-opacity="1.0" stroke-width="3.0"/>
    <path d="M 70.76439666748047 25.967090606689453 C 57.19517517089844 25.058557510375977 48.6679801940918 51.579864501953125 40.618709564208984 51.59663391113281" fill="none" stroke="rgb(0, 0, 0)" stroke-linecap="round" stroke-linejoin="round" stroke-opacity="1.0" stroke-width="3.0"/>
    <path d="M 87.95704650878906 112.76188659667969 C 60.668540954589844 113.93657684326172 71.76007080078125 116.67799377441406 45.733306884765625 90.48274993896484" fill="none" stroke="rgb(0, 0, 0)" stroke-linecap="round" stroke-linejoin="round" stroke-opacity="1.0" stroke-width="3.0"/>
    <path d="M 105.87769317626953 110.89643859863281 C 100.17606353759766 284.88812255859375 82.30609130859375 169.889404296875 110.77156829833984 198.66041564941406" fill="none" stroke="rgb(0, 0, 0)" stroke-linecap="round" stroke-linejoin="round" stroke-opacity="1.0" stroke-width="3.0"/>
  </g>
</svg>
