<?xml version="1.0" ?>
<svg height="224" version="1.1" width="224" xmlns="http://www.w3.org/2000/svg">
  <defs/>
  <g>
    <path d="M 85.15589904785156 19.871660232543945 C 55.66477966308594 21.66743278503418 62.128082275390625 43.215171813964844 99.63804626464844 30.32960319519043" fill="none" stroke="rgb(0, 0, 0)" stroke-linecap="round" stroke-linejoin="round" stroke-opacity="1.0" stroke-width="3.0"/>
    <path d="M 80.52755737304688 68.95854949951172 C 96.61112213134766 56.72669982910156 48.91818618774414 77.4332504272461 109.32611846923828 71.18885803222656" fill="none" stroke="rgb(0, 0, 0)" stroke-linecap="round" stroke-linejoin="round" stroke-opacity="1.0" stroke-width="3.0"/>
    <path d="M 123.70523834228516 11.693267822265625 C 114.14502716064453 22.810022354125977 143.27297973632812 39.38555908203125 87.38229370117188 45.724037170410156" fill="none" stroke="rgb(0, 0, 0)" stroke-linecap="round" stroke-linejoin="round" stroke-opacity="1.0" stroke-width="3.0"/>
    <path d="M 54.958736419677734 50.17047882080078 C 81.2948226928711 -5.560142517089844 42.9065055847168 20.8323974609375 49.96421432495117 -23.457529067993164" fill="none" stroke="rgb(0, 0, 0)" stroke-linecap="round" stroke-linejoin="round" stroke-opacity="1.0" stroke-width="3.0"/>
    <path d="M 60.40037155151367 57.66170883178711 C 65.41476440429688 41.488258361816406 23.733556747436523 -35.2095832824707 81.94017028808594 31.19320297241211" fill="none" stroke="rgb(0, 0, 0)" stroke-linecap="round" stroke-linejoin="round" stroke-opacity="1.0" stroke-width="3.0"/>
    <path d="M 188.6167449951172 144.5185546875 C 213.13262939453125 179.9064178466797 175.34556579589844 191.206787109375 177.058837890625 211.6112823486328" fill="none" stroke="rgb(0, 0, 0)" stroke-linecap="round" stroke-linejoin="round" stroke-opacity="1.0" stroke-width="3.0"/>
    <path d="M 179.3331298828125 118.86323547363281 C 176.0088653564453 114.42801666259766 162.6502685546875 72.98836517333984 137.21519470214844 76.85020446777344" fill="none" stroke="rgb(0, 0, 0)" stroke-linecap="round" stroke-linejoin="round" stroke-opacity="1.0" stroke-width="3.0"/>
    <path d="M 58.957618713378906 53.444496154785156 C 83.55970764160156 34.13982009887695 53.62003707885742 75.01012420654297 68.50450897216797 46.77909851074219" fill="none" stroke="rgb(0, 0, 0)" stroke-linecap="round" stroke-linejoin="round" stroke-opacity="1.0" stroke-width="3.0"/>
    <path d="M 117.32202911376953 57.5051155090332 C 61.403709411621094 28.453872680664062 146.6278533935547 39.40851974487305 96.79801940917969 43.4976806640625" fill="none" stroke="rgb(0, 0, 0)" stroke-linecap="round" stroke-linejoin="round" stroke-opacity="1.0" stroke-width="3.0"/>
    <path d="M 110.50169372558594 157.21725463867188 C 125.0205307006836 235.02462768554688 46.94136047363281 179.4112091064453 71.91361236572266 214.32821655273438" fill="none" stroke="rgb(0, 0, 0)" stroke-linecap="round" stroke-linejoin="round" stroke-opacity="1.0" stroke-width="3.0"/>
    <path d="M 158.02288818359375 82.61736297607422 C 138.7207489013672 68.13632202148438 139.07191467285156 92.73685455322266 117.08097076416016 44.42563247680664" fill="none" stroke="rgb(0, 0, 0)" stroke-linecap="round" stroke-linejoin="round" stroke-opacity="1.0" stroke-width="3.0"/>
    <path d="M 52.28273010253906 44.76949691772461 C 91.95665740966797 14.669004440307617 66.34498596191406 100.18476867675781 107.81527709960938 66.89349365234375" fill="none" stroke="rgb(0, 0, 0)" stroke-linecap="round" stroke-linejoin="round" stroke-opacity="1.0" stroke-width="3.0"/>
    <path d="M 80.77819061279297 51.76932144165039 C 72.674072265625 78.06414031982422 95.64298248291016 76.7123794555664 77.80809020996094 52.963626861572266" fill="none" stroke="rgb(0, 0, 0)" stroke-linecap="round" stroke-linejoin="round" stroke-opacity="1.0" stroke-width="3.0"/>
    <path d="M 111.07488250732422 205.45523071289062 C 109.99596405029297 168.9132843017578 87.60600280761719 162.4182586669922 106.0304183959961 178.45968627929688" fill="none" stroke="rgb(0, 0, 0)" stroke-linecap="round" stroke-linejoin="round" stroke-opacity="1.0" stroke-width="3.0"/>
    <path d="M 97.4980239868164 27.549457550048828 C 56.27568435668945 21.045333862304688 84.7234878540039 39.006805419921875 73.67546081542969 72.02091979980469" fill="none" stroke="rgb(0, 0, 0)" stroke-linecap="round" stroke-linejoin="round" stroke-opacity="1.0" stroke-width="3.0"/>
    <path d="M 51.247154235839844 59.718360900878906 C 44.341365814208984 29.364133834838867 97.28289794921875 -2.9664909839630127 56.20600128173828 51.751953125" fill="none" stroke="rgb(0, 0, 0)" stroke-linecap="round" stroke-linejoin="round" stroke-opacity="1.0" stroke-width="3.0"/>
    <path d="M 195.77499389648438 178.3972625732422 C 214.93807983398438 259.9574890136719 165.54342651367188 176.0281219482422 89.41205596923828 216.97854614257812" fill="none" stroke="rgb(0, 0, 0)" stroke-linecap="round" stroke-linejoin="round" stroke-opacity="1.0" stroke-width="3.0"/>
    <path d="M 124.6903305053711 -3.119377613067627 C 120.00904846191406 103.61514282226562 98.14498138427734 25.29193878173828 80.58053588867188 53.47015380859375" fill="none" stroke="rgb(0, 0, 0)" stroke-linecap="round" stroke-linejoin="round" stroke-opacity="1.0" stroke-width="3.0"/>
    <path d="M 145.6162567138672 86.65772247314453 C 154.69183349609375 120.2395248413086 119.06961822509766 174.6745147705078 122.62187957763672 203.11244201660156" fill="none" stroke="rgb(0, 0, 0)" stroke-linecap="round" stroke-linejoin="round" stroke-opacity="1.0" stroke-width="3.0"/>
    <path d="M 113.98856353759766 54.71308898925781 C 68.0555648803711 15.387624740600586 108.97437286376953 66.39408111572266 85.6067886352539 56.376365661621094" fill="none" stroke="rgb(0, 0, 0)" stroke-linecap="round" stroke-linejoin="round" stroke-opacity="1.0" stroke-width="3.0"/>
    <path d="M 49.38710403442383 54.29767990112305 C 66.34010314941406 71.42386627197266 61.87180709838867 102.67123413085938 118.45164489746094 64.925048828125" fill="none" stroke="rgb(0, 0, 0)" stroke-linecap="round" stroke-linejoin="round" stroke-opacity="1.0" stroke-width="3.0"/>
    <path d="M 54.940494537353516 9.097068786621094 C 137.2777099609375 68.55400848388672 115.29563903808594 34.46147918701172 86.77007293701172 57.06529998779297" fill="none" stroke="rgb(0, 0, 0)" stroke-linecap="round" stroke-linejoin="round" stroke-opacity="1.0" stroke-width="3.0"/>
    <path d="M 82.20594787597656 22.300678253173828 C 56.32849884033203 62.55303955078125 105.06015014648438 11.769742965698242 79.86505126953125 26.752822875976562" fill="none" stroke="rgb(0, 0, 0)" stroke-linecap="round" stroke-linejoin="round" stroke-opacity="1.0" stroke-width="3.0"/>
    <path d="M 121.12104034423828 -6.194760322570801 C 80.09784698486328 27.42072105407715 126.24311065673828 22.626014709472656 57.82655715942383 20.878355026245117" fill="none" stroke="rgb(0, 0, 0)" stroke-linecap="round" stroke-linejoin="round" stroke-opacity="1.0" stroke-width="3.0"/>
    <path d="M 63.840145111083984 52.605098724365234 C 41.01127624511719 -4.194664001464844 98.86732482910156 37.10844802856445 56.790103912353516 14.06542682647705" fill="none" stroke="rgb(0, 0, 0)" stroke-linecap="round" stroke-linejoin="round" stroke-opacity="1.0" stroke-width="3.0"/>
    <path d="M 48.918270111083984 -6.392709255218506 C 66.81089782714844 -10.234640121459961 62.76494598388672 -10.491962432861328 54.210994720458984 -6.203901767730713" fill="none" stroke="rgb(0, 0, 0)" stroke-linecap="round" stroke-linejoin="round" stroke-opacity="1.0" stroke-width="3.0"/>
    <path d="M 104.0156478881836 44.12486267089844 C 64.48846435546875 64.85992431640625 71.52735137939453 52.462589263916016 81.3834228515625 71.3261489868164" fill="none" stroke="rgb(0, 0, 0)" stroke-linecap="round" stroke-linejoin="round" stroke-opacity="1.0" stroke-width="3.0"/>
    <path d="M 97.54295349121094 20.4227237701416 C 62.112491607666016 42.79841995239258 79.94039154052734 70.7077407836914 88.59064483642578 42.13062286376953" fill="none" stroke="rgb(0, 0, 0)" stroke-linecap="round" stroke-linejoin="round" stroke-opacity="1.0" stroke-width="3.0"/>
    <path d="M 88.18629455566406 20.625255584716797 C 109.32192993164062 60.971099853515625 139.7560577392578 59.178955078125 91.37877655029297 42.747467041015625" fill="none" stroke="rgb(0, 0, 0)" stroke-linecap="round" stroke-linejoin="round" stroke-opacity="1.0" stroke-width="3.0"/>
    <path d="M 175.15074157714844 110.65596008300781 C 190.1713409423828 134.643310546875 186.1560821533203 144.83087158203125 188.470703125 143.10472106933594" fill="none" stroke="rgb(0, 0, 0)" stroke-linecap="round" stroke-linejoin="round" stroke-opacity="1.0" stroke-width="3.0"/>
    <path d="M 108.16126251220703 57.35488510131836 C 88.2973861694336 11.8510160446167 70.45016479492188 58.313167572021484 98.85076141357422 23.540111541748047" fill="none" stroke="rgb(0, 0, 0)" stroke-linecap="round" stroke-linejoin="round" stroke-opacity="1.0" stroke-width="3.0"/>
    <path d="M 98.7356948852539 171.58213806152344 C 60.899803161621094 89.54375457763672 60.935970306396484 135.15606689453125 59.425235748291016 69.45655822753906" fill="none" stroke="rgb(0, 0, 0)" stroke-linecap="round" stroke-linejoin="round" stroke-opacity="1.0" stroke-width="3.0"/>
  </g>
</svg>
