<?xml version="1.0" ?>
<svg height="224" version="1.1" width="224" xmlns="http://www.w3.org/2000/svg">
  <defs/>
  <g>
    <path d="M 163.396484375 138.44906616210938 C 180.4126434326172 139.0767822265625 157.3961944580078 156.8099822998047 163.9767303466797 136.6233673095703" fill="none" stroke="rgb(0, 0, 0)" stroke-linecap="round" stroke-linejoin="round" stroke-opacity="1.0" stroke-width="3.0"/>
    <path d="M 120.16381072998047 122.42227935791016 C 73.9649429321289 129.1411895751953 123.69378662109375 112.81127166748047 110.14591217041016 127.53571319580078" fill="none" stroke="rgb(0, 0, 0)" stroke-linecap="round" stroke-linejoin="round" stroke-opacity="1.0" stroke-width="3.0"/>
    <path d="M 192.1940155029297 216.81507873535156 C 162.61488342285156 209.4738311767578 184.8076934814453 192.68600463867188 211.86830139160156 244.05963134765625" fill="none" stroke="rgb(0, 0, 0)" stroke-linecap="round" stroke-linejoin="round" stroke-opacity="1.0" stroke-width="3.0"/>
    <path d="M 91.5145263671875 90.92211151123047 C 81.04542541503906 100.43138885498047 88.81401062011719 88.41803741455078 81.35723114013672 89.93011474609375" fill="none" stroke="rgb(0, 0, 0)" stroke-linecap="round" stroke-linejoin="round" stroke-opacity="1.0" stroke-width="3.0"/>
    <path d="M 172.76710510253906 80.31693267822266 C 189.0121307373047 155.98980712890625 169.12387084960938 22.646818161010742 173.333984375 110.977294921875" fill="none" stroke="rgb(0, 0, 0)" stroke-linecap="round" stroke-linejoin="round" stroke-opacity="1.0" stroke-width="3.0"/>
    <path d="M 40.51403045654297 147.87681579589844 C 27.7338924407959 119.98722076416016 58.49125671386719 -11.519421577453613 125.3593521118164 18.658836364746094" fill="none" stroke="rgb(0, 0, 0)" stroke-linecap="round" stroke-linejoin="round" stroke-opacity="1.0" stroke-width="3.0"/>
    <path d="M 124.55352020263672 124.54905700683594 C 94.95690155029297 70.6982650756836 171.05177307128906 89.95043182373047 150.900146484375 95.96632385253906" fill="none" stroke="rgb(0, 0, 0)" stroke-linecap="round" stroke-linejoin="round" stroke-opacity="1.0" stroke-width="3.0"/>
    <path d="M 133.75108337402344 147.3412628173828 C 116.46966552734375 139.88873291015625 144.26327514648438 150.11871337890625 88.07875061035156 144.59524536132812" fill="none" stroke="rgb(0, 0, 0)" stroke-linecap="round" stroke-linejoin="round" stroke-opacity="1.0" stroke-width="3.0"/>
    <path d="M 159.93365478515625 208.99717712402344 C 122.39866638183594 268.76544189453125 154.30877685546875 207.71157836914062 157.066162109375 232.8583984375" fill="none" stroke="rgb(0, 0, 0)" stroke-linecap="round" stroke-linejoin="round" stroke-opacity="1.0" stroke-width="3.0"/>
    <path d="M 45.578758239746094 90.47840881347656 C 54.14986801147461 203.11424255371094 32.10784149169922 176.26303100585938 31.3248291015625 197.30563354492188" fill="none" stroke="rgb(0, 0, 0)" stroke-linecap="round" stroke-linejoin="round" stroke-opacity="1.0" stroke-width="3.0"/>
    <path d="M 179.5752716064453 101.6104736328125 C 190.4132843017578 44.10209274291992 125.84291076660156 -5.505064964294434 162.92713928222656 47.01309585571289" fill="none" stroke="rgb(0, 0, 0)" stroke-linecap="round" stroke-linejoin="round" stroke-opacity="1.0" stroke-width="3.0"/>
    <path d="M 166.95751953125 120.58934020996094 C 183.9205322265625 81.41850280761719 197.3921661376953 112.49857330322266 169.7196807861328 139.7604522705078" fill="none" stroke="rgb(0, 0, 0)" stroke-linecap="round" stroke-linejoin="round" stroke-opacity="1.0" stroke-width="3.0"/>
    <path d="M 119.63713073730469 20.225440979003906 C 109.52542877197266 21.251951217651367 82.05887603759766 8.935273170471191 74.89390563964844 74.18669891357422" fill="none" stroke="rgb(0, 0, 0)" stroke-linecap="round" stroke-linejoin="round" stroke-opacity="1.0" stroke-width="3.0"/>
    <path d="M 90.32379150390625 88.48579406738281 C 69.11566162109375 87.59649658203125 90.43737030029297 98.47508239746094 81.36131286621094 91.05294799804688" fill="none" stroke="rgb(0, 0, 0)" stroke-linecap="round" stroke-linejoin="round" stroke-opacity="1.0" stroke-width="3.0"/>
    <path d="M 139.08177185058594 93.94783782958984 C 152.80943298339844 105.33689880371094 94.83064270019531 87.21047973632812 181.99183654785156 95.01587677001953" fill="none" stroke="rgb(0, 0, 0)" stroke-linecap="round" stroke-linejoin="round" stroke-opacity="1.0" stroke-width="3.0"/>
    <path d="M 65.00873565673828 75.05768585205078 C 39.30263900756836 163.19847106933594 82.41067504882812 138.05526733398438 47.73152160644531 103.57544708251953" fill="none" stroke="rgb(0, 0, 0)" stroke-linecap="round" stroke-linejoin="round" stroke-opacity="1.0" stroke-width="3.0"/>
    <path d="M 121.10631561279297 231.92776489257812 C 120.04055786132812 234.6675262451172 120.80256652832031 225.6678924560547 119.47219848632812 233.63369750976562" fill="none" stroke="rgb(0, 0, 0)" stroke-linecap="round" stroke-linejoin="round" stroke-opacity="1.0" stroke-width="3.0"/>
    <path d="M 171.10191345214844 208.6248016357422 C 177.69052124023438 217.61590576171875 191.24896240234375 216.94007873535156 164.54539489746094 205.99844360351562" fill="none" stroke="rgb(0, 0, 0)" stroke-linecap="round" stroke-linejoin="round" stroke-opacity="1.0" stroke-width="3.0"/>
    <path d="M 54.67586898803711 208.22274780273438 C 68.75901794433594 203.03163146972656 53.102394104003906 222.1085205078125 70.1652603149414 197.1305694580078" fill="none" stroke="rgb(0, 0, 0)" stroke-linecap="round" stroke-linejoin="round" stroke-opacity="1.0" stroke-width="3.0"/>
    <path d="M 129.12205505371094 79.31649780273438 C 93.28547668457031 5.04690408706665 136.2958221435547 -19.00530433654785 162.0838165283203 83.79319763183594" fill="none" stroke="rgb(0, 0, 0)" stroke-linecap="round" stroke-linejoin="round" stroke-opacity="1.0" stroke-width="3.0"/>
    <path d="M 89.85110473632812 235.1269073486328 C 60.222557067871094 185.28115844726562 71.59616088867188 193.69667053222656 71.02533721923828 211.66064453125" fill="none" stroke="rgb(0, 0, 0)" stroke-linecap="round" stroke-linejoin="round" stroke-opacity="1.0" stroke-width="3.0"/>
    <path d="M 70.09495544433594 89.99667358398438 C 78.71185302734375 80.82440948486328 102.46049499511719 86.1296615600586 100.71208953857422 92.77365112304688" fill="none" stroke="rgb(0, 0, 0)" stroke-linecap="round" stroke-linejoin="round" stroke-opacity="1.0" stroke-width="3.0"/>
    <path d="M 188.71876525878906 213.64022827148438 C 168.65673828125 209.63499450683594 200.86468505859375 201.77157592773438 186.90878295898438 167.28994750976562" fill="none" stroke="rgb(0, 0, 0)" stroke-linecap="round" stroke-linejoin="round" stroke-opacity="1.0" stroke-width="3.0"/>
    <path d="M 120.463623046875 95.6605224609375 C 120.8338851928711 101.07365417480469 122.11859893798828 86.20440673828125 119.65634155273438 95.40531921386719" fill="none" stroke="rgb(0, 0, 0)" stroke-linecap="round" stroke-linejoin="round" stroke-opacity="1.0" stroke-width="3.0"/>
    <path d="M 180.92446899414062 101.37088775634766 C 163.83326721191406 63.70884323120117 168.3397216796875 -7.393585205078125 97.81766510009766 20.35824203491211" fill="none" stroke="rgb(0, 0, 0)" stroke-linecap="round" stroke-linejoin="round" stroke-opacity="1.0" stroke-width="3.0"/>
    <path d="M 173.7738494873047 205.38233947753906 C 186.8560333251953 202.88088989257812 187.6855010986328 184.038330078125 183.05299377441406 125.10900115966797" fill="none" stroke="rgb(0, 0, 0)" stroke-linecap="round" stroke-linejoin="round" stroke-opacity="1.0" stroke-width="3.0"/>
    <path d="M 164.9239959716797 140.47994995117188 C 148.3021240234375 192.2489776611328 100.77440643310547 192.17822265625 91.10880279541016 180.1034698486328" fill="none" stroke="rgb(0, 0, 0)" stroke-linecap="round" stroke-linejoin="round" stroke-opacity="1.0" stroke-width="3.0"/>
    <path d="M 60.95137023925781 122.64921569824219 C 76.1785888671875 172.91549682617188 71.59540557861328 159.08677673339844 91.22209930419922 179.83058166503906" fill="none" stroke="rgb(0, 0, 0)" stroke-linecap="round" stroke-linejoin="round" stroke-opacity="1.0" stroke-width="3.0"/>
    <path d="M 168.43771362304688 118.40765380859375 C 146.4339141845703 217.82635498046875 149.2091827392578 155.27476501464844 154.64779663085938 216.89199829101562" fill="none" stroke="rgb(0, 0, 0)" stroke-linecap="round" stroke-linejoin="round" stroke-opacity="1.0" stroke-width="3.0"/>
    <path d="M 172.0791015625 111.11485290527344 C 162.90586853027344 155.8220977783203 178.42474365234375 111.40283966064453 168.5330352783203 120.91202545166016" fill="none" stroke="rgb(0, 0, 0)" stroke-linecap="round" stroke-linejoin="round" stroke-opacity="1.0" stroke-width="3.0"/>
    <path d="M 72.14295196533203 162.9620361328125 C 71.3087158203125 175.8592071533203 84.74506378173828 201.268798828125 38.03606414794922 217.29742431640625" fill="none" stroke="rgb(0, 0, 0)" stroke-linecap="round" stroke-linejoin="round" stroke-opacity="1.0" stroke-width="3.0"/>
    <path d="M 79.26373291015625 75.1564712524414 C 69.67158508300781 55.23222351074219 80.97561645507812 68.62525939941406 63.23560333251953 79.84825134277344" fill="none" stroke="rgb(0, 0, 0)" stroke-linecap="round" stroke-linejoin="round" stroke-opacity="1.0" stroke-width="3.0"/>
  </g>
</svg>
